<svg id="Layer_1" data-name="Layer 1" xmlns="http://www.w3.org/2000/svg" viewBox="0 0 469.12 470.06"><defs><style>.cls-1{fill:#544e4e;}.cls-2{fill:#fff;}.cls-3,.cls-4{fill:none;stroke-miterlimit:10;}.cls-3{stroke:#000;stroke-width:2px;}.cls-4{stroke:#544e4e;stroke-width:5px;}</style></defs><title>whitecoatlogo2</title><rect class="cls-1" width="469.12" height="470.06" rx="39.66" ry="39.66"/><rect class="cls-2" x="348.96" y="70.59" width="73.48" height="259.64" rx="12" ry="12" transform="translate(-63.47 204.73) rotate(-30)"/><rect class="cls-2" x="-16.51" y="163.66" width="259.64" height="73.48" rx="12" ry="12" transform="translate(-131.84 183.36) rotate(-60)"/><rect class="cls-2" x="125.56" y="51.45" width="218" height="356.64" rx="17.73" ry="17.73"/><path class="cls-3" d="M194.39,70.38l54.42,69.48-37.41-8.55a5.11,5.11,0,0,1-3.84-3.83Z" transform="translate(-14.94 -14.97)"/><path class="cls-3" d="M309,70.38,254.6,139.86,292,131.31a5.11,5.11,0,0,0,3.84-3.83Z" transform="translate(-14.94 -14.97)"/><path class="cls-4" d="M251.21,139.42,252,361.58h0c3.15,19.08,15.7,37.59,29.41,51a56.63,56.63,0,0,0,15.48,10.75s13.4,4.1,4.1,1.93" transform="translate(-14.94 -14.97)"/><circle class="cls-4" cx="251.46" cy="179.31" r="9.8"/><circle class="cls-4" cx="251.46" cy="229.28" r="9.8"/><circle class="cls-4" cx="251.46" cy="279.25" r="9.8"/><polygon class="cls-1" points="297.02 50.96 236.77 127.79 176.51 50.96 236.28 50.96 297.02 50.96"/><polygon class="cls-1" points="221.58 175.4 180.43 217.53 138.3 175.4 138.3 148.94 221.58 148.94 221.58 175.4"/><path class="cls-4" d="M252,332.68V370.4h0C245.2,394,230.12,413,211,428.69l-12.48,5.4" transform="translate(-14.94 -14.97)"/><polygon class="cls-1" points="221.17 388.08 238.39 355.56 247 376.6 259.43 390.95 279.52 411.04 241.11 441.53 201.08 411.04 214.47 398.6 221.17 388.08"/></svg>